HIERARCHY
ROOT Hips
{
  OFFSET 37.7272 91.0171 -270.621
  CHANNELS 6 Xposition Yposition Zposition Zrotation Xrotation Yrotation
  JOINT ToSpine
  {
    OFFSET -0.0105055 1.38907 -7.13956
    CHANNELS 3 Zrotation Xrotation Yrotation
    JOINT Spine
    {
      OFFSET 0.0105055 10 1
      CHANNELS 3 Zrotation Xrotation Yrotation
      JOINT Spine1
      {
        OFFSET 0 12 1.60637
        CHANNELS 3 Zrotation Xrotation Yrotation
        JOINT Neck
        {
          OFFSET 0 27 2.26658
          CHANNELS 3 Zrotation Xrotation Yrotation
          JOINT Head
          {
            OFFSET 0 9 2.12705
            CHANNELS 3 Zrotation Xrotation Yrotation
            End Site
            {
              OFFSET 0 11 2
            }
          }
        }
        JOINT LeftShoulder
        {
          OFFSET 8 19.6109 2.86452
          CHANNELS 3 Zrotation Xrotation Yrotation
          JOINT LeftArm
          {
            OFFSET 12 1 0.681055
            CHANNELS 3 Zrotation Xrotation Yrotation
            JOINT LeftForeArm
            {
              OFFSET 19 0 -1.52608
              CHANNELS 3 Zrotation Xrotation Yrotation
              JOINT LeftHand
              {
                OFFSET 23 0 0
                CHANNELS 3 Zrotation Xrotation Yrotation
                End Site
                {
                  OFFSET 10 0 0
                }
              }
            }
          }
        }
        JOINT RightShoulder
        {
          OFFSET -8 19.6109 2.86452
          CHANNELS 3 Zrotation Xrotation Yrotation
          JOINT RightArm
          {
            OFFSET -12 1 0.681055
            CHANNELS 3 Zrotation Xrotation Yrotation
            JOINT RightForeArm
            {
              OFFSET -19 0 -1.52608
              CHANNELS 3 Zrotation Xrotation Yrotation
              JOINT RightHand
              {
                OFFSET -23 0 0
                CHANNELS 3 Zrotation Xrotation Yrotation
                End Site
                {
                  OFFSET -10 0 0
                }
              }
            }
          }
        }
      }
    }
  }
  JOINT LeftUpLeg
  {
    OFFSET 9 -7.17245 0
    CHANNELS 3 Zrotation Xrotation Yrotation
    JOINT LeftLeg
    {
      OFFSET 0 -44.1113 0
      CHANNELS 3 Zrotation Xrotation Yrotation
      JOINT LeftFoot
      {
        OFFSET 0 -36.1829 0
        CHANNELS 3 Zrotation Xrotation Yrotation
        JOINT LeftToeBase
        {
          OFFSET 0 -4.84184 13
          CHANNELS 3 Zrotation Xrotation Yrotation
          End Site
          {
            OFFSET 0 1 6
          }
        }
      }
    }
  }
  JOINT RightUpLeg
  {
    OFFSET -9 -7.17245 0
    CHANNELS 3 Zrotation Xrotation Yrotation
    JOINT RightLeg
    {
      OFFSET 0 -44.0551 0
      CHANNELS 3 Zrotation Xrotation Yrotation
      JOINT RightFoot
      {
        OFFSET 0 -36.1469 0
        CHANNELS 3 Zrotation Xrotation Yrotation
        JOINT RightToeBase
        {
          OFFSET 0 -4.92256 13
          CHANNELS 3 Zrotation Xrotation Yrotation
          End Site
          {
            OFFSET 0 1 6
          }
        }
      }
    }
  }
}
MOTION
Frames:	7
Frame Time:	0.0333333
-25.7146 85.9034 67.0824 10.5732 -2.09797 -45.29 0 0 0 13.8199 9.21003 5.197 -16.813 1.84402 9.08961 -3.4845 -26.5993 -2.80293 -0.7412 7.26129 -2.53798 -29.5609 2.83077 -4.4202 -42.6798 10.8433 25.1753 53.7557 -21.1725 -104.83 -5.37692 0.306373 -6.4778 20.2809 5.85332 18.1376 39.2492 -7.48819 45.3827 -12.0697 -4.17749 108.813 0.429906 0.0268654 6.3274 12.2639 -43.2416 9.91732 -179.525 66.0751 -179.682 31.9355 -21.191 6.14098 1.40653 -20.6936 0.717541 5.259 -6.14945 -9.97817 -0.14577 48.4434 3.79713 -43.9751 -37.0887 -15.3677 3.57115 -13.203 -4.04821 
-33.173 87.8156 76.9847 12.9374 -3.96559 -46.3798 0 0 0 14.1454 8.64158 8.28428 -23.5938 2.64112 13.8326 -1.53071 -26.5857 -6.83752 -1.01929 7.9519 -5.9434 -26.3145 2.67185 -4.72097 -42.6468 9.42226 37.472 53.0424 -24.4884 -107.321 -7.02425 0.312574 -5.2281 16.3775 4.79804 17.0167 41.6943 -9.45556 47.2801 -14.3279 -6.40828 113.605 -2.21378 -0.11948 6.06533 8.59942 -50.8667 8.7238 -179.284 81.6094 -177.13 25.9036 -22.4162 5.18222 1.28734 -16.9436 -2.96617 0.710976 6.04059 -8.15781 0.311039 36.0029 5.75253 -31.4917 -28.8102 -8.42382 5.49865 -20.3327 -0.288307 
-42.1804 90.0607 87.4166 14.5232 -5.98922 -45.6803 0 0 0 12.8705 6.96731 11.3284 -27.8423 4.15081 17.9272 0.307707 -27.7604 -11.1186 -0.131099 10.2587 -9.92446 -20.623 2.60865 -6.15303 -44.7971 7.83903 45.8994 52.9148 -27.2344 -109.081 -7.47851 0.207956 -2.94685 12.7048 3.76907 15.3861 44.4338 -10.4766 42.8543 -12.8683 -7.16744 118.642 -2.68419 -0.149582 6.44178 3.34133 -51.0076 6.67734 0.652288 77.168 -0.771753 22.2185 -20.1475 3.93199 1.3891 -13.3762 -4.04434 -1.86248 18.7852 -6.8159 -1.31087 21.1192 7.6962 -25.0174 -6.64032 -1.42424 6.65851 -24.8366 -1.6198 
-51.177 91.0065 97.9394 15.7535 -6.49603 -43.9123 0 0 0 11.9775 3.90515 13.5444 -29.8156 6.03421 20.4422 0.928754 -29.6168 -14.377 1.19448 13.0956 -13.0847 -16.6065 2.60452 -7.61884 -44.8225 6.23769 50.2672 51.6116 -27.903 -110.343 -5.31428 0.217731 -5.283 9.69571 3.01939 14.0675 45.7256 -9.89641 38.1002 -12.5283 -7.70652 121.11 -2.04671 -0.113369 6.3224 -0.838366 -48.7306 5.92915 0.492372 55.7663 -10.3191 19.1152 -13.2527 2.32386 1.19617 -15.976 -1.06346 -1.42234 26.485 -6.8842 -2.78164 16.8569 7.7478 -27.662 3.65084 0.852118 4.81262 -18.9108 -6.24312 
-59.3287 90.6867 107.952 15.7856 -4.97771 -42.2707 0 0 0 13.0563 0.186938 14.9778 -30.0012 8.26147 21.4081 1.35181 -28.4134 -15.8492 0.375585 11.8185 -14.1942 -18.6294 2.99233 -8.31392 -40.2958 6.75971 50.6784 48.8298 -27.4438 -111.952 -3.99244 0.320339 -8.94535 8.88199 2.7608 13.3475 44.9651 -7.19175 34.1816 -14.9159 -8.5189 119.079 -1.6433 -0.094439 6.83424 -2.10049 -46.9151 10.0987 0.187275 38.6013 -22.917 15.5375 -7.32325 0.978451 1.17402 -17.9737 0.532434 1.2192 28.4798 -4.32683 -1.64703 25.2104 2.5942 -30.222 -2.0635 -0.543975 3.99518 -15.092 -7.17621 
-66.9504 90.0915 117.182 13.6371 -3.25738 -40.2703 0 0 0 14.3484 -1.88758 14.7814 -27.9632 9.8128 20.4902 2.74727 -25.5352 -15.9271 -1.48054 9.81966 -13.738 -23.4709 3.44592 -8.06174 -37.0704 9.26481 45.7609 47.2507 -26.2428 -112.231 -3.61077 0.277407 -8.78942 11.6191 3.41444 14.4547 43.7036 -4.18996 27.2374 -14.9006 -6.53052 113.143 -2.64364 -0.179638 7.67879 -2.05134 -43.7084 15.0675 -0.218882 29.9815 -28.8146 13.0465 -9.36675 0.964765 0.83098 -13.6004 0.223098 5.65388 27.2852 -5.90391 0.636249 40.6765 0.900106 -29.4097 -5.81886 -1.5246 4.21814 -16.0525 -5.48425 
-74.5643 89.9893 125.841 10.619 -4.15288 -37.1873 0 0 0 12.5206 -0.576509 11.9802 -24.5714 9.57745 17.4901 5.8152 -21.2636 -14.5448 -2.49776 7.95595 -11.9847 -27.5104 3.81422 -7.7984 -37.1855 11.458 36.372 48.069 -23.2068 -109.491 -4.05273 0.345489 -9.54157 16.6682 4.69046 16.3467 43.7366 -1.89975 18.2106 -8.15723 -1.7491 102.021 -2.25559 -0.155645 8.36675 -3.70959 -37.3393 13.1445 -0.095833 28.2775 -25.116 8.66151 -9.23788 0.743336 1.10463 -8.52922 -3.07972 8.49022 24.9771 -12.0192 0.0902163 58.9437 1.43828 -30.0702 -6.8383 -1.84087 3.97094 -14.7997 -3.2272 
